<svg id="Capa_1" data-name="Capa 1" xmlns="http://www.w3.org/2000/svg" width="15" height="15" viewBox="0 0 15 15">
  <defs>
    <style>
      .cls-1 {
        fill: #fff;
      }
    </style>
  </defs>
  <title>Mesa de trabajo 3 copia</title>
  <path class="cls-1" d="M11.337,5.006h-.755V4.06a3.162,3.162,0,1,0-6.323,0v.946H3.5A1.079,1.079,0,0,0,2.424,6.081v6.152A1.082,1.082,0,0,0,3.5,13.319h7.837a1.085,1.085,0,0,0,1.087-1.086V6.081A1.083,1.083,0,0,0,11.337,5.006ZM5.687,4.06a1.732,1.732,0,1,1,3.464,0v.946H5.687ZM8,10.472v1.571a.118.118,0,0,1-.123.115H7.127a.115.115,0,0,1-.113-.115V10.472a1.38,1.38,0,1,1,.99,0Z"/>
</svg>
