<svg id="Capa_1" data-name="Capa 1" xmlns="http://www.w3.org/2000/svg" xmlns:xlink="http://www.w3.org/1999/xlink" width="235" height="70" viewBox="0 0 235 70">
  <defs>
    <style>
      .cls-1 {
        fill: #001863;
      }

      .cls-2 {
        fill: #00d400;
      }

      .cls-3 {
        fill: url(#Degradado_sin_nombre_3);
      }

      .cls-4 {
        fill: url(#Degradado_sin_nombre_2);
      }
    </style>
    <linearGradient id="Degradado_sin_nombre_3" data-name="Degradado sin nombre 3" x1="188.999" y1="2571.974" x2="216.999" y2="2571.974" gradientTransform="translate(0 -3593.444) scale(1 1.415)" gradientUnits="userSpaceOnUse">
      <stop offset="0" stop-color="#006827"/>
      <stop offset="0.239" stop-color="#008921"/>
      <stop offset="0.574" stop-color="#00b214"/>
      <stop offset="0.839" stop-color="#00cb02"/>
      <stop offset="1" stop-color="#00d400"/>
    </linearGradient>
    <linearGradient id="Degradado_sin_nombre_2" data-name="Degradado sin nombre 2" x1="209.383" y1="2575.193" x2="220.855" y2="2569.079" gradientTransform="translate(0 -3590.519) scale(1 1.415)" gradientUnits="userSpaceOnUse">
      <stop offset="0" stop-color="#006827"/>
      <stop offset="0.052" stop-color="#007426"/>
      <stop offset="0.235" stop-color="#00961e"/>
      <stop offset="0.422" stop-color="#00b215"/>
      <stop offset="0.61" stop-color="#00c507"/>
      <stop offset="0.801" stop-color="#00d000"/>
      <stop offset="1" stop-color="#00d400"/>
    </linearGradient>
  </defs>
  <title>Mesa de trabajo 2</title>
  <g>
    <path class="cls-1" d="M41.75,57.8h-17l4-18.7a36.263,36.263,0,0,0,1-6.6h16.4l.6.7-1.1,4.4-9.9-.4-1.2,5.9,8.1-.2-1.2,4.7-7.8-.3L32.45,53l10.3-.4Z"/>
    <path class="cls-1" d="M53.95,57.8h-8.7l4-18.7a34.984,34.984,0,0,0,1-6.6h9.8c6.6,0,10.3,3,10.3,9.6C70.35,50.3,64.75,57.8,53.95,57.8Zm2.4-20.5L53.05,53h2.5c5.6,0,7.7-5.6,7.7-10.1,0-5.6-3.3-5.6-4.9-5.6Z"/>
    <path class="cls-1" d="M76.55,32.5l6.5-.4.6.7c-3.2,15-3.5,15.9-3.5,17.1a2.753,2.753,0,0,0,3.1,3.1c2.5,0,4.1-1.6,4.8-4.7,2.9-13.3,2.9-13.8,3-15.9l6.8-.3L94.35,49c-1.3,6-6.7,9.2-12.4,9.2-5.1,0-8.7-2.5-8.7-6.6C73.15,47.9,75.95,39.7,76.55,32.5Z"/>
    <path class="cls-1" d="M115.65,56.7a17.755,17.755,0,0,1-7.1,1.5c-6.4,0-9.9-3.3-9.9-9.6,0-8.6,6.3-16.4,14.8-16.4a11.2,11.2,0,0,1,6.2,1.5l-2.5,5.7a8.373,8.373,0,0,0-4.8-1.6c-4.2,0-6.6,5.2-6.6,9.6,0,3.6,1.6,5.5,4.8,5.5a13.175,13.175,0,0,0,5.5-1.4Z"/>
    <path class="cls-1" d="M117.25,57.8l10.6-21.2a35.191,35.191,0,0,0,1.8-4l8.3-.3.9.9,1.8,24.7h-6.8l-.3-4.8h-7.7l-2.3,4.8h-6.3v-.1Zm11-9.5h5.1l-.1-1.6c-.2-4.1-.2-7.1-.1-8.7h-.2c-.7,1.6-2.2,5.2-3.9,8.7Z"/>
    <path class="cls-1" d="M147.65,57.8l4.3-20.3c-2.3.1-4.7.2-7,.3l1.5-5.3h20l-.7,5.3-6.9-.3-4.3,20.3Z"/>
    <path class="cls-1" d="M164.85,57.8l3.9-18.4c.5-2.3.8-4.5,1.1-6.8l6.5-.4.6.7-5.3,24.9Z"/>
    <path class="cls-1" d="M180.45,32.8l7.4-.7.8,12.2a57.673,57.673,0,0,1,.1,7.2c.6-1.5,1.6-3.7,2.5-5.4l8.2-16.3,5.3.4.2.7-14.3,27h-7.6Z"/>
    <path class="cls-1" d="M31.45,25.7l2.3-11a30.618,30.618,0,0,0,.5-3.2h3.5c2.6,0,4.1,1.3,4.1,3.4,0,3.3-2.8,5.5-6.3,5.5h-1.5l-1.1,5.2-1.5.1Zm4.3-13-1.4,6.6h1.4a4.008,4.008,0,0,0,4.4-3.8v-.4c0-1.5-.9-2.4-2.9-2.4Z"/>
    <path class="cls-1" d="M42.65,25.7l2.3-11c.2-1.1.4-2.1.5-3.2l1.6-.2.1.2-3,14.2Zm7.6,0H43.933l.317-1.2,6.3-.105Z"/>
    <g>
      <path class="cls-1" d="M51.15,25.7l6.8-12.1c.4-.8.8-1.5,1.1-2.1l1.5-.1.2.2,1.9,14.1h-1.6l-.6-4.1h-5.6l-2.3,4.1Zm4.5-5.3h4.8l-.4-3c-.2-1.4-.3-2.9-.4-4.3h0c-.6,1.3-1.4,2.8-2.2,4.3Z"/>
      <path class="cls-1" d="M66.55,25.7l2.8-13c-1.4,0-2.9.1-4.3.1l.4-1.3h10l-.2,1.3c-1.4-.1-2.8-.1-4.3-.1l-2.8,13Z"/>
    </g>
    <path class="cls-1" d="M73.05,25.7l6.8-12.1c.4-.8.8-1.5,1.1-2.1l1.5-.1.2.2,1.9,14.1h-1.6l-.6-4.1h-5.6l-2.3,4.1Zm4.5-5.3h4.8l-.4-3a31.079,31.079,0,0,1-.3-4.3h0c-.6,1.3-1.4,2.8-2.2,4.3Z"/>
    <path class="cls-1" d="M87.65,25.7l2.3-11a16.449,16.449,0,0,0,.5-3.2h7.6l.1.2-.2,1.1-5.9-.1-1.2,5.6,5-.1-.3,1.2-4.9-.1-1.3,6.2h-1.7Z"/>
    <path class="cls-1" d="M102.65,25.9c-2.6,0-4.2-1.8-4.2-5.1,0-4.6,3.1-9.5,7.3-9.5,2.6,0,4.2,1.8,4.2,5.2C109.95,21.1,106.95,25.9,102.65,25.9Zm.3-1.3c3.3,0,5.3-4.4,5.3-8.1,0-2.5-.9-4-2.8-4-3.3,0-5.4,4.5-5.4,8.1,0,2.6,1,4,2.9,4Z"/>
    <g>
      <path class="cls-1" d="M111.95,25.7l2.3-11a16.449,16.449,0,0,0,.5-3.2h3.3c2.7,0,4.3,1.3,4.3,3.3a5.018,5.018,0,0,1-3.9,4.8l2.6,6-1.7.2c-.8-1.9-1.6-3.9-2.3-5.8h-2.3l-1.2,5.6-1.6.1Zm4.4-13-1.3,6.2h1.5c2.6,0,4.3-1.5,4.3-3.8,0-1.4-.8-2.4-2.9-2.4Z"/>
      <path class="cls-1" d="M139.25,11.5l-1.2,14.2h-1.5l.5-5.4c.2-2.7.4-4.7.7-6.8h0c-1.1,2.3-2.3,4.5-3.5,6.8l-2.9,5.4h-1.7l-.6-5.4c-.4-3-.5-4.8-.6-6.8h0c-.7,2.4-1.5,4.6-2.2,6.8l-1.9,5.4h-1.3l4.8-14.2,1.8-.1,1,7.6c.1,1.4.3,3.5.3,5.4h0c1.1-2.4,1.9-3.9,2.6-5.4l4.1-7.5,1.6-.1Z"/>
      <path class="cls-1" d="M139.75,25.7l6.8-12.1c.4-.8.8-1.5,1.1-2.1l1.5-.1.2.2,1.9,14.1h-1.6l-.6-4.1h-5.6l-2.3,4.1Zm4.5-5.3h4.8l-.4-3c-.2-1.4-.3-2.9-.4-4.3h0c-.6,1.3-1.4,2.8-2.2,4.3Z"/>
    </g>
    <path class="cls-2" d="M215.65,23.2l-1.4.1.4-7.4,3.3-.1Z"/>
    <path class="cls-2" d="M209.55,23.3l-.7,1-5.3-4.1,1.7-2.5Z"/>
    <path class="cls-2" d="M221.55,25.5l-1.1-.8,5-5.5,2.6,2Z"/>
    <path class="cls-2" d="M223.55,31.4l.2-1.4,7.1,1.8-.6,3.3Z"/>
    <path class="cls-3" d="M213.45,28.7l2.2.3.6.7,8.9,33.4-1.2-.4s-9.7-9-11.8-11.7c-3.9,3.7-13.8,9.6-13.8,9.6h-1.2Z"/>
    <path class="cls-4" d="M213.45,28.7l2.2.3.6.7,8.9,33.4-1.2-.4s-9.7-9-11.8-11.7C212.65,44.9,213.45,28.7,213.45,28.7Z"/>
    <path class="cls-2" d="M16.25,4.9,4.15,65.1A324.388,324.388,0,0,0,16.25,4.9Z"/>
  </g>
</svg>
