<?xml version="1.0" encoding="utf-8"?>
<!-- Generator: Adobe Illustrator 24.0.3, SVG Export Plug-In . SVG Version: 6.00 Build 0)  -->
<svg version="1.1" id="Capa_1" xmlns="http://www.w3.org/2000/svg" xmlns:xlink="http://www.w3.org/1999/xlink" x="0px" y="0px"
	 viewBox="0 0 15 15" style="enable-background:new 0 0 15 15;" xml:space="preserve">
<style type="text/css">
	.st0{fill:#38D430;}
	.st1{fill:url(#SVGID_1_);}
	.st2{fill:url(#SVGID_2_);}
</style>
<title>Mesa de trabajo 3 copia 8</title>
<path class="st0" d="M4.4,3l0.5-0.3l0.3,0.1l8.1,6.4l-0.3,0.1c0,0-3.7-0.5-4.7-0.7c-0.3,1.6-0.7,3.1-1.2,4.6l-0.2,0.2L4.4,3z"/>
<radialGradient id="SVGID_1_" cx="3855.7112" cy="2034.6697" r="8.799" gradientTransform="matrix(0.719 -0.574 -0.866 -1.118 -1001.776 4492.6821)" gradientUnits="userSpaceOnUse">
	<stop  offset="0.31" style="stop-color:#FFFFFF"/>
	<stop  offset="0.378" style="stop-color:#EFF5F2"/>
	<stop  offset="0.511" style="stop-color:#C4DCCF"/>
	<stop  offset="0.697" style="stop-color:#7EB397"/>
	<stop  offset="0.926" style="stop-color:#207B4A"/>
	<stop  offset="1" style="stop-color:#006830"/>
</radialGradient>
<path class="st1" d="M4.4,3l0.5-0.3l0.3,0.1l8.1,6.4l-0.3,0.1c0,0-3.7-0.5-4.7-0.7c-0.3,1.6-0.7,3.1-1.2,4.6l-0.2,0.2L4.4,3z"/>
<radialGradient id="SVGID_2_" cx="3859.3254" cy="2036.7817" r="10.248" gradientTransform="matrix(0.719 -0.574 -0.866 -1.118 -1001.239 4493.374)" gradientUnits="userSpaceOnUse">
	<stop  offset="0.31" style="stop-color:#FFFFFF"/>
	<stop  offset="0.378" style="stop-color:#EFF5F2"/>
	<stop  offset="0.511" style="stop-color:#C4DCCF"/>
	<stop  offset="0.697" style="stop-color:#7EB397"/>
	<stop  offset="0.926" style="stop-color:#207B4A"/>
	<stop  offset="1" style="stop-color:#006830"/>
</radialGradient>
<path class="st2" d="M4.4,3l0.5-0.3l0.3,0.1l8.1,6.4l-0.3,0.1c0,0-3.7-0.5-4.7-0.7C7.2,7,4.4,3,4.4,3z"/>
</svg>
