<svg id="Capa_1" data-name="Capa 1" xmlns="http://www.w3.org/2000/svg" width="20" height="15" viewBox="0 0 20 15">
  <defs>
    <style>
      .cls-1 {
        fill: #fff;
      }
    </style>
  </defs>
  <title>Mesa de trabajo 3 copia 2</title>
  <g>
    <g>
      <path class="cls-1" d="M13.75,3.15,12.585,4.315A4.223,4.223,0,1,1,6.63,10.27l-1.2,1.2a10.861,10.861,0,0,0,4.429,1.01c5.354,0,9.487-4.509,9.487-4.978C19.348,7.139,17.294,4.4,13.75,3.15Z"/>
      <path class="cls-1" d="M6.059,9.427A4.193,4.193,0,0,1,5.576,7.5,4.238,4.238,0,0,1,9.814,3.261a4.194,4.194,0,0,1,1.928.483l.914-.915a10.675,10.675,0,0,0-2.513-.308C4.414,2.521.281,7.124.281,7.5a11.666,11.666,0,0,0,4.2,3.5Z"/>
    </g>
    <path class="cls-1" d="M3.985,14.446a.65.65,0,0,1-.46-1.11L16.117.744a.65.65,0,0,1,.92.919L4.445,14.256A.649.649,0,0,1,3.985,14.446Z"/>
    <g>
      <path class="cls-1" d="M10.281,5.216a2.394,2.394,0,0,0-.467-.047,2.331,2.331,0,0,0-2.283,2.8Z"/>
      <path class="cls-1" d="M8.179,9.158a2.329,2.329,0,0,0,3.293-3.294Z"/>
    </g>
  </g>
</svg>
