<svg id="Capa_1" data-name="Capa 1" xmlns="http://www.w3.org/2000/svg" width="210" height="97" viewBox="0 0 210 97">
  <defs>
    <style>
      .cls-1 {
        fill: #001e61;
      }

      .cls-2 {
        fill: #fff;
      }
    </style>
  </defs>
  <title>Mesa de trabajo 1</title>
  <g>
    <path class="cls-1" d="M.866,0a104.008,104.008,0,0,0,103.36,92.5A104.006,104.006,0,0,0,207.586,0Z"/>
    <g>
      <path class="cls-2" d="M90.579,17.312l1.1-.079.114.113v3.871c0,.872.47,1.326,1.177,1.326s1.159-.454,1.159-1.326V18.593a8.138,8.138,0,0,0-.087-1.281l1.16-.07V21.3a2.075,2.075,0,0,1-2.3,2.11,2.027,2.027,0,0,1-2.232-2.11V18.8A12,12,0,0,0,90.579,17.312Z"/>
      <path class="cls-2" d="M98.646,23.318V20.459a5.417,5.417,0,0,0-.174-1.369l1.019-.2a3.754,3.754,0,0,1,.192.637,2.078,2.078,0,0,1,1.421-.637c.741,0,1.2.48,1.2,1.334v3.1h-1.1V20.433c0-.532-.209-.785-.636-.785a1.4,1.4,0,0,0-.829.323v3.347Z"/>
      <path class="cls-2" d="M106.068,18.209a.609.609,0,0,1-.628-.627.756.756,0,0,1,.759-.741.581.581,0,0,1,.6.619A.734.734,0,0,1,106.068,18.209Zm-.488,2.259a8.97,8.97,0,0,0-.1-1.448l1.072-.131.122.122v4.307h-1.09Z"/>
      <path class="cls-2" d="M112.251,23.336h-1.177l-1.4-4.351,1.142-.1.584,2.189a7.966,7.966,0,0,1,.366,1.482h.018a10.252,10.252,0,0,1,.392-1.482l.584-2.189.837.07.069.122Z"/>
      <path class="cls-2" d="M119.867,21.261h-2.45c.087.941.584,1.36,1.308,1.36a2.158,2.158,0,0,0,1.081-.314l.07.724a2.683,2.683,0,0,1-1.439.375,2.009,2.009,0,0,1-2.153-2.2,2.1,2.1,0,0,1,2.049-2.32,1.617,1.617,0,0,1,1.674,1.762c0,.139,0,.322-.009.479Zm-2.458-.4,1.516-.061c.009-.1.009-.183.009-.314,0-.541-.218-.942-.654-.942C117.792,19.543,117.443,20.032,117.409,20.86Z"/>
      <path class="cls-2" d="M123.281,23.318V20.459a5.417,5.417,0,0,0-.174-1.369l1.02-.2a3.743,3.743,0,0,1,.235.907c.314-.532.689-.907,1.16-.907a.737.737,0,0,1,.427.122l-.113,1.029a1.711,1.711,0,0,0-.488-.069,1.636,1.636,0,0,0-.977.348v3Z"/>
      <path class="cls-2" d="M131.485,19.971a2.643,2.643,0,0,0-1.177-.349c-.427,0-.689.192-.689.479,0,.785,2.084.672,2.084,2.032,0,.776-.68,1.273-1.744,1.273a3.234,3.234,0,0,1-1.43-.314l.079-.829a3.013,3.013,0,0,0,1.378.41c.435,0,.662-.2.662-.462,0-.784-2.075-.671-2.075-2.023,0-.775.689-1.3,1.744-1.3a3.379,3.379,0,0,1,1.246.244Z"/>
      <path class="cls-2" d="M135.571,18.209a.609.609,0,0,1-.628-.627.756.756,0,0,1,.759-.741.581.581,0,0,1,.6.619A.734.734,0,0,1,135.571,18.209Zm-.488,2.259a8.859,8.859,0,0,0-.1-1.448l1.073-.131.122.122v4.307h-1.09Z"/>
      <path class="cls-2" d="M143.082,16.71l.122.122v5.309a3.606,3.606,0,0,0,.2,1.177l-.941.088a4.657,4.657,0,0,1-.236-.593h-.017a1.415,1.415,0,0,1-1.194.593c-.994,0-1.683-.794-1.683-2.119a2.163,2.163,0,0,1,2.232-2.4,2.7,2.7,0,0,1,.549.061v-.662a8.82,8.82,0,0,0-.095-1.447Zm-1.613,6.042a.873.873,0,0,0,.645-.279V19.535a2.447,2.447,0,0,0-.427-.044c-.759,0-1.229.567-1.229,1.657C140.458,22.115,140.833,22.752,141.469,22.752Z"/>
      <path class="cls-2" d="M150,23.318l-.916.088a2.3,2.3,0,0,1-.235-.6h-.026a1.64,1.64,0,0,1-1.3.6,1.021,1.021,0,0,1-1.142-1.047c0-.994,1.046-1.412,2.362-1.464v-.419c0-.5-.261-.776-.811-.776a2.708,2.708,0,0,0-1.316.384l-.061-.854a4.658,4.658,0,0,1,1.648-.341c1.081,0,1.63.524,1.63,1.439,0,.61-.026,1.282-.026,1.8A3.639,3.639,0,0,0,150,23.318Zm-1.979-.566a1.118,1.118,0,0,0,.723-.3V21.278c-.706.061-1.29.349-1.29.9A.543.543,0,0,0,148.024,22.752Z"/>
      <path class="cls-2" d="M156.424,16.71l.122.122v5.309a3.58,3.58,0,0,0,.2,1.177l-.942.088a4.529,4.529,0,0,1-.235-.593h-.018a1.414,1.414,0,0,1-1.194.593c-.993,0-1.682-.794-1.682-2.119a2.162,2.162,0,0,1,2.232-2.4,2.711,2.711,0,0,1,.549.061v-.662a8.819,8.819,0,0,0-.1-1.447Zm-1.613,6.042a.876.876,0,0,0,.646-.279V19.535a2.467,2.467,0,0,0-.427-.044c-.759,0-1.23.567-1.23,1.657C153.8,22.115,154.175,22.752,154.811,22.752Z"/>
      <path class="cls-2" d="M164.5,41.569a1.888,1.888,0,1,1-1.887-1.908A1.9,1.9,0,0,1,164.5,41.569Zm-1.887-2.078a2.078,2.078,0,1,0,2.06,2.078A2.069,2.069,0,0,0,162.611,39.491Z"/>
      <path class="cls-2" d="M100.153,43.415H90.788V31.43a33.6,33.6,0,0,0-.209-3.964l2.852-.232.324.324v13.7l6.4-.162Z"/>
      <path class="cls-2" d="M111.341,43.415l-2.434.232a6.047,6.047,0,0,1-.626-1.6h-.07a4.358,4.358,0,0,1-3.454,1.6,2.715,2.715,0,0,1-3.037-2.782c0-2.643,2.782-3.755,6.282-3.9V35.858c0-1.345-.695-2.063-2.156-2.063a7.19,7.19,0,0,0-3.5,1.019l-.162-2.272a12.421,12.421,0,0,1,4.381-.9c2.875,0,4.336,1.39,4.336,3.824,0,1.623-.07,3.408-.07,4.776A9.687,9.687,0,0,0,111.341,43.415Zm-5.262-1.507A2.974,2.974,0,0,0,108,41.12V37.991c-1.877.162-3.43.927-3.43,2.387A1.44,1.44,0,0,0,106.079,41.908Z"/>
      <path class="cls-2" d="M119.916,43.647a10.391,10.391,0,0,1-4.335-.858l.209-2.527a9.285,9.285,0,0,0,4.173,1.067c1.646,0,2.55-.742,2.55-1.947,0-1.67-1.716-2.388-3.408-3.246-1.715-.881-3.454-1.947-3.454-4.382,0-2.874,2.411-4.52,5.8-4.52a10.536,10.536,0,0,1,3.71.649l-.371,2.573a7.068,7.068,0,0,0-3.385-.9c-1.739,0-2.689.765-2.689,1.971,0,1.6,1.739,2.272,3.408,3.129s3.454,1.994,3.454,4.521C125.573,42.048,123.255,43.647,119.916,43.647Z"/>
      <path class="cls-2" d="M136.713,43.415l-2.435.232a6.047,6.047,0,0,1-.626-1.6h-.069a4.359,4.359,0,0,1-3.455,1.6,2.715,2.715,0,0,1-3.037-2.782c0-2.643,2.783-3.755,6.283-3.9V35.858c0-1.345-.7-2.063-2.156-2.063a7.19,7.19,0,0,0-3.5,1.019l-.163-2.272a12.422,12.422,0,0,1,4.382-.9c2.875,0,4.335,1.39,4.335,3.824,0,1.623-.07,3.408-.07,4.776A9.662,9.662,0,0,0,136.713,43.415Zm-5.263-1.507a2.978,2.978,0,0,0,1.924-.788V37.991c-1.878.162-3.431.927-3.431,2.387A1.44,1.44,0,0,0,131.45,41.908Z"/>
      <path class="cls-2" d="M138.727,43.415V30.039a26.7,26.7,0,0,0-.278-3.849l2.852-.347.324.324V43.415Z"/>
      <path class="cls-2" d="M144.383,43.415V30.039a26.7,26.7,0,0,0-.278-3.849l2.851-.347.325.324V43.415Z"/>
      <path class="cls-2" d="M158.964,37.944H152.45c.231,2.5,1.552,3.617,3.477,3.617a5.736,5.736,0,0,0,2.875-.835l.185,1.924a7.114,7.114,0,0,1-3.825,1c-3.431,0-5.726-2.086-5.726-5.842,0-3.848,2.434-6.166,5.448-6.166,2.758,0,4.451,1.924,4.451,4.682,0,.371,0,.858-.024,1.276Zm-6.538-1.066,4.034-.163c.023-.254.023-.487.023-.834,0-1.437-.58-2.5-1.739-2.5C153.446,33.377,152.519,34.676,152.426,36.878Z"/>
      <path class="cls-2" d="M161.928,42.714V41.008a3.746,3.746,0,0,0-.03-.543h.686c.556,0,.876.271.876.7a.633.633,0,0,1-.408.617l.516.929-.477.023c-.141-.268-.278-.556-.405-.844h-.34v.821Zm.418-1.945V41.6h.206c.327,0,.474-.154.474-.412s-.131-.422-.471-.422Z"/>
      <g>
        <path class="cls-2" d="M93.459,55.193c-1.7,0-2.926-1.246-2.926-3.391,0-2.214,1.315-3.607,3.084-3.607s2.916,1.354,2.916,3.479C96.533,53.967,95.159,55.193,93.459,55.193Zm.079-.959c1.117,0,1.68-1,1.68-2.53,0-1.473-.5-2.55-1.64-2.55-1.088,0-1.73.988-1.73,2.53C91.848,53.137,92.421,54.234,93.538,54.234Z"/>
        <path class="cls-2" d="M101.7,55.094l-1.037.1a2.564,2.564,0,0,1-.267-.682h-.03a1.859,1.859,0,0,1-1.473.682A1.158,1.158,0,0,1,97.6,54.006c0-1.126,1.186-1.6,2.678-1.66v-.474c0-.574-.3-.88-.919-.88a3.059,3.059,0,0,0-1.492.435l-.07-.969a5.289,5.289,0,0,1,1.868-.385c1.226,0,1.849.593,1.849,1.631,0,.691-.03,1.452-.03,2.036A4.144,4.144,0,0,0,101.7,55.094Zm-2.243-.643a1.268,1.268,0,0,0,.82-.336V52.781c-.8.069-1.463.4-1.463,1.018A.614.614,0,0,0,99.458,54.451Z"/>
        <path class="cls-2" d="M104.883,53.216l-.988,1.878h-1l-.059-.139,1.433-2.322L102.838,50.2l1.255-.128,1.1,2.036,1.018-2.036.988.079.07.138-1.453,2.343,1.453,2.461h-1.315Z"/>
        <path class="cls-2" d="M112.424,55.094l-1.038.1a2.6,2.6,0,0,1-.266-.682h-.03a1.859,1.859,0,0,1-1.473.682,1.158,1.158,0,0,1-1.3-1.187c0-1.126,1.186-1.6,2.679-1.66v-.474c0-.574-.3-.88-.919-.88a3.062,3.062,0,0,0-1.493.435l-.069-.969a5.289,5.289,0,0,1,1.868-.385c1.226,0,1.848.593,1.848,1.631,0,.691-.029,1.452-.029,2.036A4.144,4.144,0,0,0,112.424,55.094Zm-2.244-.643a1.27,1.27,0,0,0,.821-.336V52.781c-.8.069-1.463.4-1.463,1.018A.614.614,0,0,0,110.18,54.451Z"/>
        <path class="cls-2" d="M117.227,51.4a2.08,2.08,0,0,0-1.166-.405c-.731,0-1.216.563-1.216,1.571,0,1.078.514,1.74,1.4,1.74a2.269,2.269,0,0,0,1.107-.336l.079.82a2.671,2.671,0,0,1-1.493.406,2.291,2.291,0,0,1-2.372-2.511,2.4,2.4,0,0,1,2.452-2.609,2.937,2.937,0,0,1,1.482.365Z"/>
        <path class="cls-2" d="M122.643,55.094l-1.038.1a2.6,2.6,0,0,1-.266-.682h-.03a1.859,1.859,0,0,1-1.473.682,1.158,1.158,0,0,1-1.3-1.187c0-1.126,1.186-1.6,2.679-1.66v-.474c0-.574-.3-.88-.919-.88a3.062,3.062,0,0,0-1.493.435l-.069-.969a5.289,5.289,0,0,1,1.868-.385c1.226,0,1.848.593,1.848,1.631,0,.691-.029,1.452-.029,2.036A4.144,4.144,0,0,0,122.643,55.094Zm-2.244-.643a1.27,1.27,0,0,0,.821-.336V52.781c-.8.069-1.463.4-1.463,1.018A.614.614,0,0,0,120.4,54.451Z"/>
      </g>
      <g>
        <polygon class="cls-2" points="69.003 16.686 63.215 16.684 66.108 21.694 58.389 35.063 64.177 35.063 71.895 21.695 69.003 16.686"/>
        <polygon class="cls-2" points="46.815 41.745 49.707 46.759 52.599 41.75 68.037 41.75 65.142 36.737 49.707 36.737 46.815 41.745"/>
        <polygon class="cls-2" points="83.467 41.746 86.363 36.735 80.578 36.735 72.859 23.366 69.965 28.379 77.684 41.746 83.467 41.746"/>
        <polygon class="cls-2" points="79.57 48.462 82.466 43.451 76.681 43.451 68.962 30.081 66.068 35.095 73.786 48.462 79.57 48.462"/>
        <polygon class="cls-2" points="61.286 16.685 55.499 16.682 58.39 21.693 50.672 35.063 56.46 35.062 64.178 21.694 61.286 16.685"/>
        <polygon class="cls-2" points="50.673 48.461 53.565 53.475 56.457 48.466 71.895 48.466 69.001 43.452 53.564 43.453 50.673 48.461"/>
      </g>
    </g>
  </g>
</svg>
